<?xml version="1.0" encoding="utf-8"?>
<!DOCTYPE svg PUBLIC "-//W3C//DTD SVG 1.1//EN" "http://www.w3.org/Graphics/SVG/1.1/DTD/svg11.dtd">
<svg version="1.1" id="Layer_1" xmlns="http://www.w3.org/2000/svg" xmlns:xlink="http://www.w3.org/1999/xlink" x="0px" y="0px"
	 width="731px" height="132px" viewBox="0 0 731 132" enable-background="new 0 0 731 132" xml:space="preserve">
<path fill="rgb(235, 235, 235)" d="M572.553,113.826c-0.818,0-1.486-0.575-1.486-1.285V20.377c0-0.708,0.668-1.284,1.486-1.284
	c0.822,0,1.484,0.576,1.484,1.284v92.164C574.037,113.251,573.375,113.826,572.553,113.826"/>
<path fill="rgb(235, 235, 235)" d="M719.699,66.46c0,31.495-25.531,57.028-57.029,57.028c-31.496,0-57.027-25.533-57.027-57.028
	c0-31.498,25.531-57.03,57.027-57.03C694.168,9.43,719.699,34.962,719.699,66.46 M631.039,85.928V68.67h7.119v17.258h6.688V46.991
	h-6.688v15.854h-7.119V46.991h-6.688v38.937H631.039z M652.289,75.842c0,3.309,0.908,5.86,2.725,7.658
	c1.814,1.798,4.322,2.697,7.523,2.697c3.197,0,5.705-0.899,7.523-2.697c1.812-1.798,2.723-4.35,2.723-7.658V46.721h-6.688v29.392
	c0,2.841-1.188,4.26-3.559,4.26c-2.375,0-3.559-1.419-3.559-4.26V46.721h-6.689V75.842z M679.957,85.928h10.572
	c3.592,0,6.236-1.016,7.926-3.047c1.691-2.031,2.535-4.773,2.535-8.225c0-2.408-0.457-4.35-1.375-5.824
	c-0.918-1.473-2.256-2.606-4.02-3.397c1.549-0.611,2.707-1.673,3.48-3.183c0.771-1.51,1.16-3.163,1.16-4.961
	c0-3.379-0.846-5.941-2.537-7.685c-1.689-1.744-4.297-2.615-7.818-2.615h-9.924V85.928z M686.645,52.492h2.535
	c2.91,0,4.369,1.833,4.369,5.5c0,1.582-0.414,2.805-1.24,3.667c-0.828,0.863-1.908,1.295-3.238,1.295h-2.426V52.492z
	 M686.645,68.454h2.158c1.977,0,3.387,0.486,4.232,1.456c0.846,0.972,1.268,2.482,1.268,4.53c0,2.015-0.377,3.515-1.133,4.503
	c-0.754,0.99-1.996,1.482-3.721,1.482h-2.805V68.454z"/>
<polygon fill="rgb(235, 235, 235)" points="413.744,50.757 443.02,50.757 411.424,80.037 411.424,88.31 458.357,88.31 458.357,79.16 
	426.48,79.16 458.357,49.685 458.357,41.611 413.744,41.611 "/>
<path fill="rgb(235, 235, 235)" d="M508.289,41.61h-11.652L474.6,88.312h11.398l3.715-7.909h25.631l3.572,7.909h11.574L508.289,41.61z
	 M494.004,71.244l8.463-18.042l8.715,18.042H494.004z"/>
<polygon fill="rgb(235, 235, 235)" points="215.986,88.311 225.682,88.311 225.682,71.25 244.287,71.25 248.953,62.22 225.682,62.22 
	225.682,50.78 254.859,50.78 259.6,41.613 215.986,41.613 "/>
<path fill="rgb(235, 235, 235)" d="M387.84,66.427c2.379-2.776,3.529-6.287,3.529-8.999c0.037-0.535,0-1.116,0-1.861
	c0-2.708-1.15-6.222-3.529-9.003c-3.903-4.498-8.731-4.954-14.025-4.954h-30.313v46.702h10.356V71.354h15.09l12.037,16.957h12.429
	l-12.726-17.548C383.297,70.133,385.707,68.887,387.84,66.427 M380.598,56.701c0,0.111-0.004,0.213-0.004,0.307
	c-0.006,0.093-0.012,0.179-0.025,0.273c0,0.065-0.006,0.12-0.02,0.183c-0.006,0.105-0.023,0.199-0.045,0.298
	c-0.006,0.053-0.018,0.11-0.023,0.162c-0.024,0.096-0.042,0.192-0.066,0.282c-0.014,0.051-0.033,0.111-0.051,0.159
	c-0.021,0.069-0.047,0.145-0.068,0.214c-0.625,1.759-2.111,2.672-3.703,3.149c-1.069,0.283-2.444,0.466-4.225,0.49h-18.51V50.771
	h18.125c4.633,0,6.566,1.125,7.424,2.25c0.783,1.116,1.188,2.689,1.191,3.614V56.701z"/>
<path fill="rgb(235, 235, 235)" d="M296.035,40.079c-12.912,0.399-26.688,8.221-26.688,25.38c0,8.624,3.49,13.139,4.922,14.838
	c1.853,2.412,7.543,9.735,22.533,9.735c18.052,0,27.685-11.239,27.685-24.877C324.486,49.304,311.466,39.565,296.035,40.079
	 M296.837,80.76c-9.429,0-13.001-4.604-14.176-6.119c-0.886-1.072-3.09-3.916-3.09-9.338c0-10.789,8.666-15.713,16.789-15.959
	c9.702-0.321,17.884,5.801,17.884,15.767C314.245,73.691,308.194,80.76,296.837,80.76"/>
<path fill="rgb(235, 235, 235)" d="M91.934,88.721l22.832-3.492l17.187-25.847H107.17c-0.102,0.004-0.142,0.084-0.072,0.142
	c0.037,0.029,0.111,0.064,0.111,0.064c1.034,0.49,2.731,2.05-0.501,6.911L91.934,88.721z"/>
<path fill="rgb(235, 235, 235)" d="M136.593,59.381h-2.913c-0.106,0.004-0.14,0.085-0.07,0.143c0.035,0.027,0.109,0.063,0.109,0.063
	c1.034,0.488,2.733,2.05-0.499,6.911l-11.701,17.596l-0.07,0.109l15.377-2.365c1.639-0.292,3.093-0.729,4.392-1.447
	c4.308-2.381,7.192-5.907,9.866-9.9l7.38-11.109H136.593z"/>
<path fill="rgb(235, 235, 235)" d="M62.374,93.241l22.873-3.499l20.192-30.359H14.007c-0.449,0-0.733,0.162-0.733,0.507
	c0,0.27,0.178,0.46,0.728,0.552l63.297,10.357L62.374,93.241z"/>
<polygon fill="rgb(235, 235, 235)" points="39.247,69.234 11.577,110.857 48.386,105.227 68.881,74.393 "/>
<path fill="rgb(235, 235, 235)" d="M92.241,31.475H80.211c-8.786,0.415-15.21,3.601-20.407,7.833c-3.942,3.212-7.231,7.161-10.185,11.345
	l-2.653,3.991h105.793c6.209-0.264,10.909-1.561,15.229-3.917c6.958-3.797,12.063-9.378,16.434-15.686l2.369-3.559
	C185.751,31.482,92.241,31.475,92.241,31.475"/>
<path fill="rgb(235, 235, 235)" d="M155.344,83.969c-1.844,0-3.158-1.381-3.158-3.212c0-1.932,1.453-3.21,3.158-3.21
	c1.677,0,3.142,1.278,3.142,3.21C158.486,82.687,157.021,83.969,155.344,83.969 M155.344,78.105c-1.392,0-2.473,1.089-2.473,2.651
	c0,1.461,0.942,2.651,2.473,2.651c1.371,0,2.456-1.08,2.456-2.651C157.8,79.194,156.715,78.105,155.344,78.105 M154.708,82.592
	h-0.586v-3.553h1.35c0.859,0,1.295,0.301,1.295,1.021c0,0.646-0.395,0.91-0.926,0.971l0.996,1.561h-0.662l-0.919-1.516h-0.548
	V82.592z M155.357,80.579c0.439,0,0.826-0.045,0.826-0.562c0-0.428-0.418-0.48-0.772-0.48h-0.703v1.042H155.357z"/>
</svg>
